<svg xmlns="http://www.w3.org/2000/svg" viewBox="0 0 1584 396" width="1584" height="396">
  <defs>
    <linearGradient id="bannerbg" x1="0%" y1="0%" x2="100%" y2="100%">
      <stop offset="0%" style="stop-color:#0f766e"/>
      <stop offset="50%" style="stop-color:#115e59"/>
      <stop offset="100%" style="stop-color:#134e4a"/>
    </linearGradient>
  </defs>
  <!-- Background -->
  <rect width="1584" height="396" fill="url(#bannerbg)"/>

  <!-- Clean heart icon -->
  <g transform="translate(490, 95) scale(0.4)">
    <path d="M0 75 C-10 62, -110 -20, -110 -50 C-110 -85, -75 -110, -42 -110 C-18 -110, 0 -92, 0 -92 C0 -92, 18 -110, 42 -110 C75 -110, 110 -85, 110 -50 C110 -20, 10 62, 0 75Z"
          fill="#f59e0b"/>
  </g>

  <!-- FQHC Talent Exchange — styled -->
  <text x="792" y="130" text-anchor="middle" font-family="system-ui, -apple-system, sans-serif" font-size="58" letter-spacing="-0.5">
    <tspan fill="white" font-weight="800">FQHC </tspan>
    <tspan fill="#fbbf24" font-weight="400" font-style="italic">Talent </tspan>
    <tspan fill="white" font-weight="800">Exchange</tspan>
  </text>

  <!-- Tagline -->
  <text x="792" y="180" text-anchor="middle" font-family="system-ui, -apple-system, sans-serif" font-size="22" font-weight="400" fill="#99f6e4">
    Strategic Intelligence for California's Community Health Centers
  </text>

  <!-- Divider -->
  <line x1="542" y1="208" x2="1042" y2="208" stroke="#5eead4" stroke-width="1" opacity="0.3"/>

  <!-- Stats row -->
  <text x="792" y="255" text-anchor="middle" font-family="system-ui, -apple-system, sans-serif">
    <tspan font-size="20" font-weight="700" fill="white">220+ </tspan>
    <tspan font-size="15" fill="#5eead4">FQHCs Tracked</tspan>
    <tspan font-size="15" fill="#5eead4" dx="25">|</tspan>
    <tspan font-size="20" font-weight="700" fill="white" dx="25">105+ </tspan>
    <tspan font-size="15" fill="#5eead4">Free Tools</tspan>
    <tspan font-size="15" fill="#5eead4" dx="25">|</tspan>
    <tspan font-size="20" font-weight="700" fill="white" dx="25">9 </tspan>
    <tspan font-size="15" fill="#5eead4">CA Regions</tspan>
  </text>

  <!-- URL -->
  <text x="792" y="305" text-anchor="middle" font-family="system-ui, -apple-system, sans-serif" font-size="18" fill="#5eead4" letter-spacing="0.5">
    fqhctalent.com
  </text>
</svg>
